<svg width="96" height="62" viewBox="0 0 96 62" fill="none" xmlns="http://www.w3.org/2000/svg">
<rect width="95.8182" height="62" rx="11.2727" fill="#DFE6F9"/>
<path fill-rule="evenodd" clip-rule="evenodd" d="M59.024 31.8134C59.024 31.0341 58.954 30.2847 58.8242 29.5653H48.4727V33.8168H54.3878C54.133 35.1906 53.3587 36.3547 52.1946 37.134V39.8917H55.7467C57.825 37.9783 59.024 35.1606 59.024 31.8134Z" fill="#4285F4"/>
<path fill-rule="evenodd" clip-rule="evenodd" d="M48.4731 42.5545C51.4406 42.5545 53.9285 41.5703 55.747 39.8917L52.195 37.134C51.2108 37.7934 49.9518 38.1831 48.4731 38.1831C45.6104 38.1831 43.1874 36.2497 42.3231 33.6519H38.6512V36.4995C40.4597 40.0915 44.1766 42.5545 48.4731 42.5545Z" fill="#34A853"/>
<path fill-rule="evenodd" clip-rule="evenodd" d="M42.3231 33.6519C42.1032 32.9925 41.9783 32.288 41.9783 31.5636C41.9783 30.8392 42.1032 30.1348 42.3231 29.4754V26.6277H38.6511C37.9067 28.1115 37.4821 29.7901 37.4821 31.5636C37.4821 33.3372 37.9067 35.0158 38.6511 36.4996L42.3231 33.6519Z" fill="#FBBC05"/>
<path fill-rule="evenodd" clip-rule="evenodd" d="M48.4731 24.9441C50.0867 24.9441 51.5355 25.4986 52.6746 26.5877L55.827 23.4353C53.9236 21.6618 51.4356 20.5727 48.4731 20.5727C44.1766 20.5727 40.4597 23.0357 38.6512 26.6277L42.3231 29.4753C43.1874 26.8775 45.6104 24.9441 48.4731 24.9441Z" fill="#EA4335"/>
</svg>
